<?xml version="1.0" encoding="utf-8"?>
<!-- Generator: Adobe Illustrator 23.0.1, SVG Export Plug-In . SVG Version: 6.00 Build 0)  -->
<svg version="1.2" baseProfile="tiny" id="Layer_1" xmlns="http://www.w3.org/2000/svg" xmlns:xlink="http://www.w3.org/1999/xlink"
	 x="0px" y="0px" viewBox="0 0 2225.2 2081" xml:space="preserve">

<path fill="#000000" d="M2125.4,1285.2c-20.1-16.8-37.3-31.3-38.4-32.2c-1.8-1.8-1.8-2.1,0.2-16.7c11.1-78.2,12.4-155.6,4.1-237.3
	c-19.2-188.9-91.6-366.1-210.5-515.2c-76.2-95.6-172.5-178-279.4-239.1c-33.5-19.1-80.1-42-113.7-55.7c-4.6-1.8-8.5-4.1-8.7-4.9
	c-0.3-0.9-9.6-41.9-20.6-91.1c-11.1-49.2-20.4-90.3-20.6-91.3C1437.3,0.1,1421,0,1114.4,0H791.6L791,2.7
	c-0.3,1.6-7.3,41.7-15.6,89.3c-8.2,47.6-15.3,87.1-15.7,87.8c-0.5,0.7-7.3,3.9-15.3,7.1C589.5,249.4,450,353.4,345.8,484
	c-108,135.4-178.7,296.8-203.9,465c-1.4,9.6-3.1,18.6-3.6,19.9c-2,4.9-6,43.3-7.9,76.5c-1.3,23-1.3,80.8,0,105.1
	c1.2,21.8,3.1,42.2,6.2,68.3l2.2,18.4l-4,3.7c-8.3,7.8-19.4,18-30.4,28.1c-6.3,5.8-14.6,13.4-18.5,17c-8.4,7.9-9.9,9.2-52.2,48.4
	c-18.3,16.8-33.4,31-33.7,31.5c-0.3,0.4,12.2,22.8,27.7,49.7s88.1,152.5,161.2,279.1c73.1,126.7,133.4,230.3,134,230.3
	c0.6,0,8.5-2.7,17.6-6.1c9-3.3,28.6-10.5,43.4-15.9c88-32.2,109.6-40,110.4-40c0.6,0,3.6,2.2,6.9,4.9c18.3,15.3,63.2,46.9,92.7,65.3
	c50,31.2,115.1,63,176,85.8c145.4,54.5,306.3,73.7,460.5,55c82.3-10,165.4-30.8,239.5-60c9.9-3.9,18.9-7.2,20-7.4
	c5.4-0.9,37.4-15.5,69-31.4c51.3-26,96.2-53.8,143.3-88.9l19.3-14.3l5.2,1.6c2.9,0.9,6.6,2,8.2,2.6c4.7,1.5,50.3,15.7,57,17.7
	c11.6,3.5,65,20.2,67.5,21.1c1.4,0.5,7.2,2.3,13,4c5.8,1.8,14.7,4.5,19.8,6.2c5.1,1.6,9.7,2.8,10.2,2.6
	c1.2-0.4,323.2-557.9,322.8-558.8C2224.9,1368.3,2205.7,1352.1,2125.4,1285.2L2125.4,1285.2z M2153.7,1389.9
	c-0.5,0.9-61.2,105.9-134.7,233.3c-80.4,139.3-134.4,231.8-135.2,231.8c-0.8,0-8.8-2.2-17.7-4.9c-8.9-2.7-17.8-5.4-19.7-5.9
	c-4.2-1.1-44.9-13.4-53.5-16.1c-3.3-1.1-10-3.1-15-4.6c-4.9-1.5-9.9-3.1-11-3.5c-1.1-0.5-4-1.4-6.5-2s-5.4-1.5-6.5-2s-5.1-1.8-9-2.8
	c-3.8-1.1-12.5-3.7-19.2-5.7c-12.1-3.7-12.2-3.7-14.7-1.9c-1.3,1.1-8.9,7.1-16.8,13.5c-24.2,19.6-68.9,51.9-71.7,51.9
	c-0.5,0-5,2.6-9.8,5.7c-46.7,30.1-104.9,59.9-158.2,81c-90.2,35.7-179.7,55.9-281.6,63.5c-22.3,1.6-96.7,1.6-119,0
	c-130.3-9.7-244.9-41-356.5-97.3c-57.8-29.1-118.2-67.9-163.5-104.9c-3.8-3.2-7.5-5.9-8.2-6.1c-0.6-0.2-5.5-4.2-10.8-8.8l-9.7-8.3
	l-4.7,1c-4.5,1-11,3.2-43.1,15.2c-9.1,3.4-31.1,11.5-49,18s-39.9,14.6-49,17.9c-9,3.4-16.9,6.1-17.5,6.1s-61.7-105.1-135.9-233.6
	L71.1,1386.8l3.4-3c1.9-1.7,10.8-10.1,19.9-18.7c9.1-8.5,19.4-18.3,23-21.6c3.6-3.4,10.8-10.2,16-15.2s11.9-11.2,14.9-13.9
	s7.1-6.5,9.2-8.4c6.8-6.4,26.1-24.5,28.8-26.9c1.4-1.3,5.6-5.2,9.2-8.7l6.7-6.4l-1.4-7.2c-5-26-10.5-73.4-10.9-92.8
	c-0.1-8-0.6-29.6-1-48c-1.2-53.3,2-103.9,10-156.5c39-257.1,184.1-485.7,400-630c63.1-42.3,133.9-78,202-102
	c11.5-4.1,12-4.4,12.8-7.6c1-4,7.5-40.5,19.8-111.4c5-28.6,9.3-53,9.6-54.3l0.5-2.2h269.8c256.2,0,269.9,0.1,270.4,1.7
	c0.8,2.7,23.5,99.9,31.6,135.3c3.9,17.3,7.5,32.8,7.9,34.5c0.7,2.8,1.8,3.4,19.7,10.3c39.4,15.2,86.4,37,118.9,55.2
	c106,59.2,197.3,136.2,272,229c116.4,144.7,186.3,320.2,201.4,505.5c3.3,40.1,3.9,111.2,1.1,144.5c-2.6,32-7.5,69.5-13.2,101.3
	l-1.2,6.7l4.4,4.3c2.5,2.3,8.6,7.6,13.5,11.7c5,4.1,9.5,8,10.2,8.6c0.6,0.6,5.7,4.9,11.4,9.5c5.6,4.6,14.5,12,19.8,16.4
	c5.3,4.5,22.4,18.8,38.1,31.9C2157.6,1390.4,2154.9,1387.9,2153.7,1389.9L2153.7,1389.9z"/>

</svg>
